<svg width="375" height="219" viewBox="0 0 375 219" fill="none" xmlns="http://www.w3.org/2000/svg">
<g clip-path="url(#clip0_635_761)">
<path d="M288.556 432.7C290.015 434.158 292.382 434.16 293.82 432.68C328.866 396.593 352.182 350.724 360.652 301.096C369.331 250.24 361.992 197.946 339.648 151.437C317.304 104.929 281.059 66.5015 235.919 41.4637C190.779 16.4259 138.972 6.01328 87.6544 11.6643C36.3371 17.3154 -11.9576 38.7512 -50.5584 73.0105C-89.1592 107.27 -116.161 152.662 -127.833 202.916C-139.506 253.171 -135.273 305.807 -115.72 353.554C-96.6392 400.149 -63.887 439.843 -21.817 467.438C-20.0922 468.569 -17.7821 468.052 -16.6756 466.312V466.312C-15.568 464.569 -16.0857 462.261 -17.8116 461.128C-58.5725 434.363 -90.3061 395.885 -108.8 350.724C-127.767 304.41 -131.872 253.352 -120.55 204.606C-109.227 155.859 -83.0357 111.829 -45.593 78.597C-8.15022 45.3654 38.6957 24.5727 88.4734 19.0912C138.251 13.6097 188.504 23.7099 232.29 47.9966C276.076 72.2833 311.234 109.558 332.907 154.671C354.581 199.784 361.7 250.51 353.281 299.84C345.072 347.941 322.485 392.4 288.535 427.392C287.097 428.874 287.095 431.24 288.556 432.7V432.7Z" fill="#EEF2F8"/>
<path d="M295.045 425.203C296.382 426.543 298.557 426.544 299.874 425.184C338.444 385.33 361.244 332.716 363.931 277.169C366.674 220.478 348.27 164.793 312.306 120.962C276.341 77.132 225.391 48.2955 169.381 40.0707C113.371 31.8458 56.3137 44.8218 9.32386 76.4706C-37.666 108.119 -71.2225 156.174 -84.8085 211.273C-98.3944 266.373 -91.0367 324.57 -64.1688 374.527C-37.3008 424.485 7.1531 462.624 60.5326 481.516C112.837 500.027 170.04 498.758 221.423 478.024C223.175 477.317 223.994 475.31 223.265 473.567V473.567C222.533 471.82 220.522 471.002 218.765 471.71C168.95 491.78 113.506 492.996 62.8076 475.053C11.0295 456.728 -32.0908 419.733 -58.1527 371.274C-84.2147 322.816 -91.3516 266.364 -78.1733 212.918C-64.9949 159.472 -32.445 112.859 13.1351 82.1595C58.7152 51.4601 114.061 38.8735 168.39 46.8515C222.72 54.8296 272.142 82.801 307.027 125.317C341.913 167.832 359.765 221.847 357.104 276.837C354.499 330.689 332.405 381.7 295.027 420.35C293.716 421.706 293.713 423.867 295.045 425.203V425.203Z" fill="#EEF2F8"/>
<path d="M299.349 414.515C300.598 415.76 302.622 415.762 303.853 414.497C334.484 383.028 354.65 342.877 361.555 299.514C368.627 255.101 361.426 209.596 340.982 169.512C320.539 129.429 287.901 96.8219 247.74 76.3598C207.58 55.8978 161.957 48.6295 117.401 55.5956C72.8461 62.5617 31.6434 83.4048 -0.308426 115.141C-32.2603 146.878 -53.323 187.881 -60.4814 232.28C-67.6398 276.679 -60.5269 322.198 -40.1609 362.321C-20.2758 401.496 11.2483 433.566 50.0709 454.178C51.6284 455.004 53.554 454.384 54.3612 452.816V452.816C55.1711 451.243 54.5483 449.314 52.9862 448.483C15.3731 428.489 -15.1691 397.402 -34.4409 359.434C-54.196 320.515 -61.0955 276.362 -54.1518 233.294C-47.2082 190.227 -26.7773 150.455 4.21595 119.67C35.2092 88.8857 75.1758 68.6678 118.394 61.9107C161.613 55.1537 205.868 62.2038 244.823 82.052C283.779 101.9 315.438 133.529 335.268 172.41C355.099 211.291 362.084 255.431 355.223 298.512C348.531 340.536 328.999 379.45 299.332 409.964C298.097 411.234 298.095 413.264 299.349 414.515V414.515Z" fill="#EEF2F8"/>
<path d="M333.212 376.844C334.68 377.464 336.375 376.777 336.973 375.299C351.958 338.261 355.056 297.444 345.794 258.525C336.31 218.67 314.36 182.885 283.141 156.385C251.922 129.885 213.066 114.053 172.231 111.196C132.356 108.406 92.6293 118.13 58.5676 138.975C57.2086 139.807 56.8075 141.591 57.6582 142.938V142.938C58.5092 144.285 60.2904 144.684 61.6503 143.853C94.6735 123.664 133.18 114.249 171.829 116.953C211.439 119.725 249.129 135.081 279.412 160.787C309.694 186.492 330.985 221.202 340.185 259.863C349.162 297.587 346.168 337.149 331.659 373.056C331.063 374.533 331.746 376.224 333.212 376.844V376.844Z" fill="#EEF2F8"/>
<path d="M35.0237 159.748C33.9822 158.542 32.1585 158.408 30.9688 159.469C17.5101 171.472 5.80529 185.309 -3.80145 200.576C-4.6498 201.924 -4.21751 203.699 -2.85827 204.528V204.528C-1.49786 205.357 0.275634 204.924 1.12536 203.575C10.4199 188.821 21.7355 175.443 34.7416 163.834C35.9302 162.773 36.0647 160.953 35.0237 159.748V159.748Z" fill="#EEF2F8"/>
<path d="M317.613 396.806C318.977 397.383 320.553 396.744 321.109 395.37C330.792 371.436 335.187 345.677 333.978 319.863C332.727 293.154 325.509 267.066 312.854 243.518C300.2 219.97 282.432 199.561 260.858 183.793C240.006 168.553 216.11 158.024 190.822 152.917C189.37 152.623 187.968 153.587 187.697 155.044V155.044C187.426 156.5 188.387 157.898 189.837 158.192C214.339 163.151 237.491 173.359 257.696 188.127C278.624 203.421 295.859 223.218 308.133 246.06C320.408 268.901 327.409 294.207 328.623 320.114C329.794 345.128 325.542 370.089 316.169 393.285C315.614 394.658 316.25 396.23 317.613 396.806V396.806Z" fill="#EEF2F8"/>
<path d="M289.619 433.438C291.084 435.126 293.642 435.309 295.307 433.818C327.303 405.149 352.008 369.229 367.341 329.038C383.155 287.586 388.512 242.869 382.935 198.85C377.359 154.831 361.023 112.867 335.373 76.6766C309.723 40.486 275.552 11.1853 235.886 -8.62994C196.22 -28.4452 152.284 -38.1634 107.969 -36.9238C63.6541 -35.6842 20.3286 -23.525 -18.1697 -1.52329C-56.668 20.4784 -89.151 51.6436 -112.741 89.2116C-135.614 125.637 -149.442 166.992 -153.098 209.82C-153.288 212.046 -151.605 213.98 -149.377 214.137V214.137C-147.15 214.294 -145.221 212.615 -145.03 210.39C-141.469 168.89 -128.06 128.818 -105.894 93.5189C-83.0114 57.0779 -51.503 26.8477 -14.1596 5.50604C23.1838 -15.8356 65.2095 -27.6301 108.195 -28.8325C151.18 -30.0349 193.798 -20.6082 232.274 -1.38742C270.75 17.8334 303.897 46.255 328.777 81.3599C353.657 116.465 369.504 157.169 374.912 199.868C380.321 242.567 375.126 285.942 359.786 326.15C344.926 365.1 320.993 399.914 289.998 427.71C288.337 429.2 288.155 431.751 289.619 433.438V433.438Z" fill="#EEF2F8"/>
<path d="M297.199 426.603C298.581 427.741 300.627 427.542 301.743 426.141C320.197 402.978 333.705 376.256 341.415 347.629C349.406 317.957 350.985 286.92 346.046 256.589C341.107 226.258 329.764 197.33 312.773 171.733C295.782 146.136 273.534 124.46 247.512 108.149C221.49 91.8374 192.292 81.2668 161.866 77.1415C131.44 73.0163 100.485 75.4313 71.0657 84.2255C41.646 93.0197 14.4377 107.991 -8.74479 128.141C-31.112 147.582 -49.2355 171.413 -61.9997 198.145C-62.771 199.76 -62.0572 201.685 -60.4322 202.432V202.432C-58.8057 203.181 -56.8825 202.466 -56.1098 200.85C-43.7308 174.957 -26.1669 151.873 -4.49624 133.038C17.9907 113.492 44.3828 98.97 72.9199 90.4397C101.457 81.9093 131.483 79.5667 160.997 83.5682C190.51 87.5696 218.831 97.8232 244.072 113.645C269.314 129.467 290.895 150.493 307.376 175.322C323.857 200.151 334.86 228.211 339.651 257.632C344.442 287.054 342.91 317.159 335.159 345.941C327.688 373.679 314.606 399.573 296.736 422.024C295.621 423.425 295.817 425.466 297.199 426.603V426.603Z" fill="#EEF2F8"/>
</g>
<defs>
<clipPath id="clip0_635_761">
<rect width="375" height="219" fill="white"/>
</clipPath>
</defs>
</svg>
