<svg width="41" height="29" viewBox="0 0 41 29" fill="none" xmlns="http://www.w3.org/2000/svg">
<g id="Subtract">
<path d="M11.2427 0H3.96805C1.77656 0 0 1.77656 0 3.96805V8.59743L11.2427 8.59743V0Z" fill="white"/>
<path d="M0 10.9121V17.8562H11.2427V10.9121L0 10.9121Z" fill="white"/>
<path d="M0 20.1709V24.8003C0 26.9918 1.77655 28.7684 3.96805 28.7684H11.2427V20.1709H0Z" fill="white"/>
<path d="M14.8801 28.7684V0H36.0431C38.2346 0 40.0112 1.77656 40.0112 3.96805V8.59743H25.4616V28.7684H14.8801Z" fill="white"/>
<path d="M29.099 28.7684H36.0431C38.2346 28.7684 40.0112 26.9918 40.0112 24.8003V20.1709H29.099V28.7684Z" fill="white"/>
<path d="M40.0112 17.8562V10.9121L29.099 10.9121V17.8562H40.0112Z" fill="white"/>
</g>
</svg>
